# xmcd CD database file
#
# Track frame offsets:
#	150
#	17177
#	37102
#	63937
#
# Disc length: 1212 seconds
#
# Revision: 0
# Processed by: cddbd v1.5.1PL0 Copyright (c) Steve Scherf et al.
# Submitted via: CDex 1.51
#
DISCID=2f04ba04
DTITLE=I.L.C -Image Leaf Craft- - クリスタル
DYEAR=1900
DGENRE=サウンドトラック (一般)
TTITLE0=クリスタル
TTITLE1=砂
TTITLE2=舟
TTITLE3=紅い空の下で、僕達は生きていく
EXTD=
EXTT0=
EXTT1=
EXTT2=
EXTT3=
PLAYORDER=
